<?xml version="1.0" encoding="utf-8"?>
<!-- Generator: Adobe Illustrator 22.0.1, SVG Export Plug-In . SVG Version: 6.00 Build 0)  -->
<svg version="1.1" id="Layer_1" xmlns="http://www.w3.org/2000/svg" xmlns:xlink="http://www.w3.org/1999/xlink" x="0px" y="0px"
	 viewBox="0 0 36 36" style="enable-background:new 0 0 36 36;" xml:space="preserve">
<style type="text/css">
	.st0{fill:#CCD8FF;}
	.st1{fill:#727272;}
	.st2{fill:#FEFEFE;}
	.st3{fill:#2A6ADB;}
	.st4{fill:#00F6FC;}
	.st5{fill:#4F4F4F;}
	.st6{fill:#B8C0D1;}
	.st7{font-family:'BrushScriptMT';}
	.st8{font-size:9.7822px;}
</style>
<rect x="0.1" y="-0.5" class="st0" width="36" height="36.5"/>
<g id="XMLID_9_">
	<g>
		<path class="st5" d="M3.7,34.2C3.6,34.2,3.6,34.3,3.7,34.2c0,0.2,0,0.2,0,0.3c0,0,0,0,0,0c0.4-0.1,0.8-0.1,1.2-0.2
			c1.9-0.4,3.8-0.8,5.6-1.4c0.4-0.1,0.8,0,1.2,0.1c0.2,0.1,0.4,0.1,0.5,0.3c0,0,0.1,0.1,0.1,0.1c0.1,0.2,0.2,0.4,0,0.5
			c-0.2,0.2-0.4,0.3-0.6,0.1c-0.1,0-0.1-0.1-0.2-0.1c0,0.2,0.4,0.4,0.6,0.3c0.4-0.2,0.6-0.6,0.2-0.9c-0.3-0.3-0.6-0.4-1-0.5
			c-0.1,0-0.1,0-0.2,0c0,0-0.1,0-0.1,0c0,0,0,0,0,0c0.3-0.1,0.7-0.2,1-0.3c0.1,0,0.2,0,0.3,0c0.9,0.2,1.4,0.8,1.5,1.8
			c0,0.1,0,0.1,0,0.2c0-0.5-0.1-0.9-0.4-1.3c-0.3-0.4-0.7-0.6-1.2-0.7c0.1-0.1,0.3-0.1,0.4-0.1c0.4,0.1,0.8,0.2,1.2,0.5
			c0.5,0.4,0.7,1,0.6,1.6c0,0.1,0,0.3,0,0.5c0.2-0.4,0.2-1.3-0.2-1.8c-0.4-0.6-0.9-0.8-1.5-1c0.1-0.1,0.2-0.1,0.3-0.1
			c0.9,0.1,1.7,0.2,2.5,0.5c0.4,0.2,0.8,0.4,1.1,0.7c0.1,0.1,0.1,0.1,0,0.2c-0.1,0.3-0.4,0.4-0.7,0.4c-0.3,0-0.6,0-0.9-0.2
			c-0.1,0-0.2-0.1-0.2-0.2c0,0.2,0.2,0.4,0.5,0.5c0.6,0.2,1,0.1,1.5-0.5c0.2,0.2,0.3,0.5,0.4,0.8c0,0,0-0.1,0-0.1
			c-0.1-0.3-0.2-0.5-0.4-0.7c0,0-0.1-0.1,0-0.1c0.1-0.5,0.1-0.9-0.2-1.3c0.5,0.2,0.7,0.6,0.7,1.2c0.1-0.1,0.1-0.1,0.1-0.2
			c0.1-0.4-0.1-0.7-0.5-1C17.1,32,17,32,16.9,31.9c-0.1,0-0.2-0.1-0.3-0.2c-0.4-0.3-0.8-0.4-1.2-0.5c0,0,0,0-0.1,0c0,0-0.1,0-0.1,0
			c0,0,0,0,0,0c0,0,0,0,0,0c0.1-0.1,0.2-0.1,0.4-0.1c0.8-0.1,1.6-0.2,2.4-0.1c0.5,0.1,1.1,0.2,1.5,0.5c0.6,0.4,0.6,1.2,0.5,1.6
			c-0.1,0.3-0.4,0.5-0.9,0.5c-0.2,0-0.4-0.1-0.6-0.3c-0.3-0.3-0.3-0.7,0-1c0,0,0,0,0,0c0,0,0,0,0,0c0,0,0,0-0.1,0
			c-0.1,0.1-0.2,0.2-0.3,0.3c-0.2,0.4-0.1,0.7,0.3,1c0.4,0.3,0.8,0.4,1.3,0.2c0.4-0.2,0.5-0.5,0.5-0.9c0-0.8-0.4-1.4-1.2-1.7
			c-0.7-0.2-1.3-0.3-2-0.3c-0.2,0-0.5,0-0.7,0c0,0,0,0,0.1-0.1c0.1-0.1,0.3-0.1,0.4-0.2c0.3-0.2,0.5-0.2,0.8-0.1
			c0.7,0.1,1.4,0.3,2,0.5c0.3,0.1,0.7,0.3,1,0.6c0.5,0.4,0.8,1,0.7,1.7c0,0,0,0,0,0.1c0,0,0,0,0,0c0,0,0,0,0-0.1
			c0-0.2,0.1-0.5,0.1-0.7c0-0.5-0.3-0.9-0.7-1.2c-0.6-0.4-1.2-0.7-1.9-0.9c-0.4-0.1-0.8-0.2-1.2-0.3c0.1,0,0.2-0.1,0.3-0.1
			c0.1-0.1,0.2-0.1,0.3,0c1.1,0.4,2.2,0.6,3.4,0.5c0.6,0,1.1-0.2,1.7-0.4c0,0,0.1,0,0.1,0c0.2,0.1,0.4,0.3,0.6,0.5
			c0.2,0.2,0.2,0.4,0,0.6c-0.2,0.3-0.6,0.4-0.9,0.3c0,0.1,0.1,0.1,0.1,0.1c0.5,0.2,1.1-0.1,1.2-0.7c0-0.2-0.1-0.4-0.2-0.5
			c-0.2-0.2-0.3-0.3-0.6-0.4c0.1-0.1,0.2-0.1,0.3-0.2c0.1,0,0.1,0,0.1,0c0.4,0.4,0.7,0.8,0.7,1.4c0,0.1,0,0.2,0,0.3
			c0.1-0.1,0-0.2,0-0.3c0-0.6-0.2-1.1-0.7-1.5c-0.1-0.1-0.1-0.1,0-0.1c0.1-0.1,0.2-0.1,0.2-0.2c-0.1,0.1-0.2,0.1-0.2,0.2
			c0,0-0.1,0-0.1,0c-0.5-0.4-1.2-0.6-1.8-0.8c-0.5-0.1-1-0.1-1.5-0.1c0,0,0,0-0.1,0c0.1-0.1,0.2-0.1,0.4-0.2
			c0.2-0.1,0.3-0.2,0.5-0.2c0.7,0,1.4,0,2,0.2c0.6,0.2,1.2,0.5,1.5,1.1c0,0,0,0,0,0c0,0,0-0.1,0-0.1c-0.3-0.5-0.8-0.9-1.4-1.2
			c-0.6-0.2-1.2-0.3-1.9-0.3c0,0-0.1,0-0.1,0c0.1-0.1,0.2-0.2,0.4-0.2c0.6,0,1.1,0.1,1.6,0.3c0.6,0.2,1.1,0.5,1.7,0.8
			c0.5,0.2,1,0.4,1.6,0.4c0.3,0,0.5,0,0.8-0.2c0,0,0.1-0.1,0.1-0.1c0,0,0,0,0,0c-0.4,0.2-0.9,0.1-1.3,0c-0.5-0.1-0.9-0.3-1.3-0.5
			c-0.8-0.4-1.6-0.8-2.5-0.9c0,0,0,0,0,0c0,0,0,0,0,0c-0.1,0-0.1,0-0.2,0c0,0,0,0,0.1,0c0.2-0.1,0.5-0.1,0.7-0.2c0,0,0.1,0,0.1,0
			c0.5,0.2,1,0.4,1.6,0.5c0.8,0.1,1.7,0.1,2.4-0.2c0.1-0.1,0.3-0.1,0.4-0.1c0.1,0,0.1,0,0.1,0c0.5,0.5,0.8,1.1,0.5,1.9
			c-0.2,0.7-1,1.1-1.8,1c-0.2-0.1-0.4-0.2-0.6-0.3c0,0-0.1-0.1-0.1-0.1c0,0,0,0,0,0c0.4,0.4,0.9,0.6,1.4,0.6c0.6-0.1,1-0.4,1.2-0.9
			c0.4-0.8,0.2-1.5-0.4-2.1c0,0-0.1-0.1-0.1-0.1c0.3-0.1,0.5-0.1,0.8-0.2c0.2,0,0.3,0,0.4,0.2c0.1,0.1,0.1,0.2,0.2,0.3
			c0-0.2-0.1-0.4-0.3-0.5c0.3,0,0.6,0,0.9,0.2c0-0.1-0.1-0.1-0.1-0.1C29.7,27,29.4,27,29.1,27c0,0-0.1,0-0.1,0
			c-0.5-0.5-1-0.7-1.7-0.8c-1.1-0.2-2.2,0-3.2,0.2c-0.2,0-0.4,0.1-0.7,0.1c0.1-0.1,0.2-0.3,0.4-0.4c1-0.4,2.1-0.7,3.2-0.8
			c0.6,0,1.3,0,1.8,0.4c0.2,0.1,0.3,0.2,0.4,0.3c0,0,0,0,0.1,0c0-0.1-0.1-0.1-0.1-0.1c-0.4-0.4-0.8-0.6-1.3-0.7
			c-0.8-0.1-1.6,0-2.3,0.1c-0.5,0.1-0.9,0.2-1.4,0.4c0.1-0.1,0.2-0.3,0.3-0.3c0.4-0.2,0.8-0.4,1.3-0.6c0.2-0.1,0.3,0,0.5,0
			c0.8,0.1,1.6,0,2.4-0.2c0.1,0,0.1,0,0.2,0c0.4,0.2,0.8,0.4,1,0.7c0,0,0,0.1,0.1,0.1c0,0,0,0.1,0.1,0.1c-0.2-0.5-0.4-0.8-0.9-1.1
			c0.2-0.1,0.3-0.1,0.5-0.2c0.3-0.1,0.5-0.2,0.8-0.4c0,0,0.1,0,0-0.1c0,0,0,0-0.1,0c-0.4,0.2-0.8,0.4-1.3,0.5c-0.1,0-0.1,0-0.2,0
			c-0.6-0.3-1.2-0.3-1.8-0.2c-0.4,0.1-0.8,0.1-1.2,0.3c-0.2,0.1-0.5,0.1-0.7,0c0.1-0.1,0.2-0.2,0.3-0.3c0,0,0.1,0,0.1,0
			c1.3-0.1,2.5-0.4,3.6-0.9c0.1,0,0.1,0,0.1,0c0.1,0,0.2,0.1,0.3,0.1s0.2,0.1,0.2,0.2c0-0.1,0-0.2-0.4-0.5c0.7-0.4,1.4-0.8,2-1.4
			c0.2,0.3,0.3,0.6,0.4,0.9c0.1,0,0,0,0-0.1c-0.1-0.3-0.1-0.6-0.3-0.9c0-0.1,0-0.1,0-0.1c0,0,0.1-0.1,0.1-0.1
			c0.1-0.2,0.3-0.2,0.5-0.3c0.7-0.1,1.4,0,2,0.3c0,0,0,0,0,0c-0.6-0.3-1.3-0.5-2-0.4c0,0-0.1,0-0.1,0c0,0,0-0.1,0.1-0.1
			c0.2-0.3,0.5-0.6,0.7-0.9c0,0,0.1,0,0-0.1c0,0,0,0-0.1,0c-0.1,0.2-0.3,0.4-0.4,0.5c-0.1,0.2-0.3,0.3-0.4,0.5c0,0-0.1,0.1-0.1,0.1
			c-0.2,0-0.4,0.1-0.5,0.1c-0.1,0-0.1,0-0.2,0c-0.1-0.1-0.1-0.1-0.2-0.1c0.1-0.1,0.2-0.2,0.4-0.3c0.3-0.2,0.6-0.5,0.9-0.8
			c0.3-0.3,0.5-0.5,0.8-0.8c0.2-0.2,0.3-0.4,0.5-0.6c0.2-0.3,0.3-0.5,0.5-0.8c0,0,0.1,0,0-0.1c-0.1,0-0.1,0-0.1,0.1
			c-0.1,0.2-0.2,0.4-0.4,0.6c-0.1,0.2-0.2,0.3-0.3,0.5c0,0-0.1,0.1-0.1,0.1c-0.7,0.3-1.3,0.7-1.9,1.1c-0.2,0.2-0.5,0.4-0.7,0.6
			c0,0,0,0,0,0c-0.3,0.4-0.7,0.4-1.2,0.5c0-0.1,0.1-0.1,0.1-0.1c0.4-0.2,0.7-0.3,1-0.6c0.2-0.2,0.5-0.3,0.7-0.5c0,0,0.1-0.1,0.1-0.1
			c0.6-0.5,1.1-1,1.5-1.6c0.4-0.5,0.7-0.9,1.1-1.4c0,0,0.1-0.1,0-0.1c-0.1,0.1-0.2,0.3-0.3,0.4c-0.7,0.9-1.5,1.8-2.4,2.5
			c-0.5,0.4-1.1,0.8-1.7,1.1c0,0-0.1,0-0.1,0c0-0.2,0.1-0.2,0.2-0.3c0.2-0.1,0.3-0.1,0.5-0.2c0.4-0.2,0.8-0.5,1.1-0.8
			c0.5-0.4,0.8-0.8,1.2-1.3c0.4-0.5,0.6-1.1,0.9-1.6c0.1-0.2,0.2-0.2,0.3-0.2c0.2-0.1,0.4-0.1,0.6,0.1c0,0,0,0,0.1,0c0,0,0,0,0-0.1
			c-0.2-0.2-0.4-0.3-0.7-0.2c0,0-0.1,0-0.1,0c0-0.1,0.1-0.2,0.1-0.3c0,0,0-0.1,0-0.1c0-0.1,0.1-0.3,0.1-0.4c0,0,0-0.1,0-0.1
			c0,0,0,0,0,0.1c0,0.1,0,0.1-0.1,0.1c-0.1,0.3-0.2,0.5-0.3,0.8c0,0.1-0.1,0.1-0.2,0.1c-0.4,0.3-0.8,0.7-1.1,1.2
			c-0.4,0.5-0.8,1.1-1.3,1.6c-0.3,0.3-0.7,0.5-1,0.7c0,0-0.1,0-0.1,0c0,0,0-0.1,0-0.1c0.2-0.1,0.4-0.2,0.5-0.3
			c0.3-0.2,0.6-0.5,0.9-0.8c0.4-0.4,0.7-0.8,1-1.3c0.4-0.6,0.7-1.1,1-1.7c0.1-0.2,0.2-0.4,0.3-0.6c0,0,0-0.1,0-0.1
			c-0.1,0.2-0.2,0.4-0.3,0.5c-0.5,0.9-1,1.8-1.7,2.6c-0.3,0.4-0.7,0.7-1.1,1c-0.1,0.1-0.2,0.1-0.3,0.2c-0.1,0-0.1,0.1-0.2,0.1
			c0.1,0,0.1-0.1,0.2-0.1c0.1-0.1,0.2-0.1,0.3-0.2c0.4-0.3,0.8-0.7,1.1-1.1c0.3-0.4,0.6-0.8,0.9-1.3c0.3-0.5,0.5-1,0.7-1.5
			c0-0.1,0.1-0.2,0.1-0.3c-0.8,1.8-1.9,3.3-3.5,4.4c-0.1-0.1-0.1-0.2,0-0.3c0.2-0.2,0.4-0.4,0.6-0.6l-0.1-0.1c0,0,0,0-0.1,0
			c0,0,0-0.1,0.1-0.1l0,0c0,0,0,0,0,0c0,0,0,0,0,0c0.2-0.3,0.4-0.6,0.6-1c0.2-0.2,0.3-0.5,0.5-0.7l-0.1-0.1C31,16,31,16.1,30.9,16.2
			c-0.3,0.4-0.5,0.8-0.8,1.2c-0.2,0.3-0.4,0.5-0.7,0.8c0,0,0,0.1-0.1,0c0,0,0-0.1,0-0.1c0.2-0.3,0.5-0.6,0.7-0.9
			c0.2-0.3,0.3-0.6,0.4-0.9c0-0.1,0.1-0.2,0.1-0.3c0,0,0-0.1,0.1-0.1c0-0.1,0-0.2,0.1-0.3c0-0.1,0.1-0.2,0.2-0.2
			c0.3-0.2,0.5-0.4,0.8-0.6c0,0,0,0,0-0.1c-0.3,0.2-0.6,0.4-1,0.7c0-0.1,0-0.2,0.1-0.3c0.2-0.1,0.4-0.3,0.6-0.5
			c0.1-0.1,0.2-0.1,0.3-0.2c0,0,0.1,0,0-0.1c0,0,0,0-0.1,0c-0.2,0.1-0.4,0.3-0.7,0.4c-0.1,0.1-0.2,0.1-0.2,0.1c0-0.5,0-1-0.2-1.5
			c0,0,0,0,0,0c0,0.1,0,0.2,0.1,0.4c0.1,0.4,0.1,0.8,0,1.2c0,0.1,0,0.1-0.1,0.1c-0.9,0.7-1.6,1.6-2.2,2.7c-0.1,0.1-0.1,0.2-0.4,0.2
			c0-0.1,0.1-0.1,0.1-0.2c0.3-0.3,0.5-0.6,0.7-1c0.1-0.1,0.1-0.3,0.2-0.4c0-0.1,0.2-0.2,0.2-0.3c0.3-0.4,0.6-0.8,0.6-1.3
			c0.1-0.4-0.1-0.8-0.4-1c-0.4-0.3-0.8-0.4-1.3-0.5c-0.1,0-0.1,0,0,0c0.1,0,0.3,0,0.4,0.1c0.4,0.1,0.8,0.3,1.1,0.7
			c0.1,0.2,0.1,0.4,0.1,0.6c0,0,0,0.1,0,0.1c0,0,0,0,0,0.1c0,0,0,0.1,0,0.1c0,0.1,0,0.1-0.1,0.2c-0.1,0.1-0.2,0.2-0.3,0.2
			c-0.1,0-0.1,0-0.1,0c0-0.1,0-0.3-0.1-0.4c0,0,0-0.1,0-0.1c0.1-0.1,0.1-0.2,0.2-0.3c0,0,0.1,0,0,0c0,0,0,0-0.1,0
			c-0.1,0.1-0.1,0.1-0.2,0.2c0,0.1-0.1,0.1-0.1,0c-0.1-0.2-0.2-0.4-0.3-0.6c0,0-0.1-0.1-0.1-0.1c0.2,0.2,0.3,0.5,0.3,0.8
			c0,0.1,0,0.1,0,0.1c-0.4,0.4-0.7,0.8-1,1.2c0,0,0,0,0,0c0,0,0,0.1-0.1,0.1c0,0,0-0.1,0.1-0.1c0.1-0.2,0.1-0.3,0.2-0.5
			c0.1-0.2,0.1-0.4,0.2-0.5l0,0c0,0,0,0,0,0c0,0,0-0.1,0-0.1c0.1-0.4,0-0.8-0.1-1.2c-0.2-0.6-0.6-0.9-1.2-1.1c0,0,0,0,0,0
			c0,0,0,0.1,0.1,0.1c0.3,0.2,0.6,0.4,0.8,0.7c0.1,0.1,0,0.2,0,0.3c0,0.4-0.1,0.8-0.1,1.1c-0.1,0.6-0.4,1.2-0.7,1.7
			c-0.3,0.5-0.5,1-0.6,1.5c0,0,0,0.1-0.1,0.1c-0.1,0.2-0.2,0.4-0.3,0.6c-0.2,0.5-0.4,1.1-0.5,1.6c-0.1,0.6,0,1.2,0.3,1.7
			c0.1,0.1,0.1,0.2,0.2,0.3c0.1,0.1,0,0.1,0,0.1c0,0.1-0.1,0-0.1,0c-0.3-0.4-0.6-0.9-0.6-1.4c0-0.2,0-0.5,0-0.7c0,0,0-0.1,0-0.1
			c0-0.2,0.1-0.3,0.1-0.4c0,0,0-0.1,0-0.1c0-0.1,0-0.2,0.1-0.3c0-0.1,0-0.1,0.1-0.2c0-0.1,0-0.3,0.1-0.4c0-0.1,0-0.1,0-0.2
			c0-0.1,0-0.1,0-0.2c0,0,0,0,0,0c0,0,0,0,0,0c0-0.1,0-0.1,0-0.2c0.2-0.5,0.4-1,0.6-1.5c0-0.2,0.1-0.4,0.1-0.6
			c0.1-0.3,0.1-0.6,0.1-1c0-0.4-0.1-0.8-0.3-1.2c0-0.1-0.1-0.2-0.1-0.2c0.2,0.5,0.3,1.1,0.3,1.6c0,0.1,0,0.3-0.1,0.4
			c0,0,0,0.1,0,0.1c0,0.2-0.1,0.4-0.1,0.6c0,0.1,0,0.1-0.1,0.1c-0.1,0.3-0.2,0.6-0.3,0.9c0,0.1,0,0.1-0.1,0.2c0-0.1,0-0.2-0.1-0.3
			c0-0.1,0-0.2-0.1-0.3c0,0,0,0,0,0c0,0,0,0,0,0.1c0.1,0.3,0.1,0.7,0,1.1c0,0.2-0.1,0.3-0.2,0.5c-0.2,0.3-0.3,0.7-0.4,1.1
			c0,0.1,0,0.1-0.1,0.2c0,0.1,0,0.1,0,0.2l0,0c0,0,0,0,0,0c0,0.1,0,0.1,0,0.2c0,0.1,0,0.3-0.1,0.4c0,0.1,0,0.1,0,0.2
			c0,0,0,0.1,0,0.1c0,0,0-0.1,0-0.1c0,0,0-0.1,0-0.1c0-0.5-0.1-0.9-0.3-1.3c0-0.2,0-0.3,0-0.5c0-0.1,0-0.3,0.1-0.4
			c0-0.2,0.1-0.3,0.1-0.5c0.1-0.3,0.2-0.5,0.3-0.8c0.2-0.4,0.4-0.7,0.6-1.1c0.2-0.3,0.4-0.6,0.7-0.9c0,0,0,0,0-0.1c0,0,0,0,0-0.1
			c-0.4,0.5-0.8,1-1.1,1.5c-0.3,0.5-0.6,1.1-0.8,1.7c0,0,0,0.1,0,0.1c0,0.1-0.1,0.2-0.1,0.3c-0.1-0.3-0.2-0.6-0.2-0.9
			c0-0.2,0.1-0.3,0.2-0.4c0.1-0.2,0.3-0.4,0.6-0.6c-0.3,0.1-0.5,0.4-0.7,0.7c0-0.4,0.1-0.8,0.2-1.1c0.1-0.4,0.3-0.7,0.5-1.1
			c0.2-0.3,0.4-0.5,0.6-0.7c0,0,0,0,0,0c0,0,0,0-0.1,0c0,0-0.1,0.1-0.1,0.1c-0.5,0.5-0.8,1-1.1,1.6c-0.1,0.2-0.1,0.3-0.2,0.5
			c0,0.1,0,0.2-0.1,0.2c-0.1,0.3-0.1,0.7-0.1,1c0,0.1-0.1,0.2-0.1,0.3c-0.1,0.4-0.2,0.7-0.3,1.1c0,0.1,0,0.3-0.1,0.4
			c-0.2-0.2-0.3-0.3-0.5-0.5c-0.1,0-0.1-0.1-0.1-0.1c0-0.1,0-0.1,0.1-0.2c0.1-0.2,0.2-0.3,0.3-0.5c0,0-0.1,0-0.1,0
			c-0.1,0.2-0.3,0.3-0.4,0.5c0,0.1-0.1,0.1-0.1,0c-0.3-0.2-0.6-0.4-0.9-0.5c0,0-0.1,0-0.1,0c0.1,0.1,0.2,0.1,0.3,0.2
			c0.2,0.1,0.5,0.3,0.7,0.4c0,0,0.1,0.1,0,0.1c-0.1,0.1-0.1,0.2-0.2,0.3c0,0.1-0.1,0.1-0.1,0c-0.2-0.2-0.4-0.4-0.6-0.5
			c-0.1,0-0.1,0-0.2,0c-0.4,0-0.7,0.1-0.9,0.5c-0.3,0.5,0.1,1,0.5,1.1c0,0,0,0,0.1,0c-0.1-0.1-0.2-0.1-0.3-0.2
			c-0.2-0.2-0.3-0.4-0.2-0.6c0.1-0.3,0.3-0.5,0.6-0.5c0.3,0,0.5,0.1,0.6,0.3c0,0,0,0,0,0c0.3,0.3,0.2,0.3,0.1,0.6
			c-0.1,0.4-0.2,0.7-0.3,1.1c-0.1,0.6,0,1.2,0.1,1.8c0.1,0.4,0.2,0.9,0.3,1.3c0,0.4,0,0.8-0.1,1.2c0,0.1,0,0.1,0,0.2
			c0,0.1,0,0.1,0,0.2c0,0.1,0,0.1-0.1,0.2c-0.1,0.3-0.2,0.5-0.3,0.8c0,0.1-0.1,0.1-0.2,0.2c0,0,0,0,0,0c0,0,0-0.1,0-0.1
			c0.1-0.1,0.1-0.3,0.1-0.4c0,0,0-0.1,0-0.1c0.1-0.3,0.1-0.6,0-1c0-0.1,0-0.1,0-0.2c0.1-0.4,0.1-0.7,0.1-1.1c0-0.6-0.1-1.1-0.4-1.6
			c-0.1-0.2-0.2-0.3-0.2-0.5c-0.3-0.5-0.7-0.9-1.4-1.1c0,0,0,0-0.1,0c-0.2,0-0.3-0.1-0.3-0.3c-0.1-0.2-0.1-0.5-0.1-0.7
			c0-0.4,0.2-0.6,0.5-0.8c0,0,0.1-0.1,0.2-0.1c0,0,0,0,0,0c-0.2-0.1-0.6,0.2-0.8,0.6c0,0.1,0,0.1,0,0.2c0,0.4,0,0.7,0.2,1
			c0,0.1,0,0.1-0.1,0.1c-0.1,0-0.3,0.1-0.4,0.2c0,0-0.1,0,0,0.1c0,0.1,0.1,0,0.1,0c0.2-0.1,0.4-0.1,0.5-0.1c0,0,0.1,0,0.1,0
			c0.3,0.5,0.6,1,0.9,1.5c0.5,0.7,0.8,1.5,1,2.4c0,0.1,0,0.2,0,0.2c-0.2,0.9-0.6,1.8-1.1,2.5c-0.1,0.1-0.1,0.2-0.2,0.2
			c-0.1,0.1-0.2,0.1-0.3,0.2c0.1-0.1,0.1-0.2,0.2-0.3c0.5-0.8,0.7-1.6,0.6-2.5c0-0.2,0-0.4,0-0.6c0-1-0.2-1.9-0.8-2.6
			c-0.1-0.1-0.1-0.2-0.2-0.2c0.3,0.4,0.6,0.9,0.7,1.4c0.1,0.5,0.2,1,0.1,1.5c-0.1-0.2-0.1-0.3-0.2-0.4c-0.1-0.2-0.2-0.4-0.4-0.6
			c-0.1-0.2-0.3-0.3-0.4-0.5c0,0,0-0.1-0.1,0c0,0,0,0,0,0.1c0.3,0.4,0.6,0.8,0.8,1.3c0.1,0.2,0.1,0.4,0.2,0.6c0,0.2-0.1,0.3-0.1,0.5
			c0,0.1,0,0.1-0.1,0.1c-0.1,0.3-0.2,0.6-0.4,1c-0.3,0.7-0.8,1.4-1.3,2c-0.1,0.1-0.2,0.1-0.3,0.2c0-0.1,0-0.1,0.1-0.1
			c0.4-0.5,0.7-1,0.9-1.5c0.1-0.3,0.2-0.7,0.2-1.1c0-0.6-0.1-1.2-0.3-1.7c-0.2-0.5-0.6-1-1-1.3c-0.3-0.3-0.6-0.5-1-0.4
			c-0.3,0-0.5,0.2-0.6,0.4c-0.1,0.2,0.1,0.6,0.3,0.7c0.1,0.1,0.2,0.1,0.3,0.1c-0.1-0.1-0.2-0.1-0.3-0.2c-0.2-0.2-0.2-0.4-0.1-0.5
			c0.1-0.2,0.4-0.3,0.7-0.2c0.3,0.1,0.6,0.3,0.8,0.6c0.5,0.5,0.9,1.1,1,1.8c0.1,0.5,0.1,1.1-0.1,1.6c-0.2,0.5-0.4,1-0.7,1.4
			c0,0,0,0.1-0.1,0.1c0,0,0-0.1,0.1-0.1c0.1-0.3,0.2-0.5,0.3-0.8c0,0,0-0.1,0-0.1c0-0.1,0.1-0.3,0.1-0.4c0.1-0.3,0.1-0.5,0.1-0.8
			c0-0.4-0.1-0.8-0.2-1.2c-0.1-0.3-0.2-0.6-0.4-0.9c0,0,0,0,0,0c0,0.1,0.1,0.2,0.1,0.3c0.3,0.6,0.4,1.3,0.3,2
			c-0.1,0.9-0.4,1.7-0.9,2.5c-0.1,0.1-0.2,0.2-0.3,0.4C17.3,29.9,17.2,30,17,30c0,0-0.1,0-0.1,0c0,0,0,0,0-0.1
			c0.4-0.4,0.7-0.9,0.9-1.4c0,0,0-0.1,0-0.1c0-0.2,0.1-0.4,0.1-0.6c0-0.4-0.1-0.7-0.3-1c-0.1-0.1-0.1-0.3-0.1-0.4
			c0-0.1,0-0.2-0.1-0.4c0-0.1,0-0.1,0-0.1c0.1,0,0.2,0,0.3-0.1c-0.1-0.1-0.2,0-0.3,0c-0.1,0-0.2,0-0.2-0.1c-0.1-0.3-0.4-0.5-0.6-0.7
			c-0.2-0.1-0.3-0.2-0.5-0.3c0,0,0,0-0.1,0c0,0,0,0,0,0.1c0.4,0.2,0.7,0.5,0.9,0.9c0.1,0.2,0.1,0.2-0.1,0.3c-0.1,0-0.1,0-0.2,0
			c-0.3-0.2-0.6-0.3-0.9-0.4c0,0,0,0-0.1,0c0.3,0.2,0.6,0.3,0.8,0.5c-0.2,0.1-0.3,0.2-0.4,0.3c-0.1,0.1-0.1,0-0.1,0
			c-0.1-0.2-0.3-0.4-0.5-0.4c-0.1,0-0.2-0.1-0.3-0.1c0,0-0.1,0,0,0.1c0.1,0,0.1,0,0.2,0c0.2,0.1,0.3,0.2,0.4,0.4
			c0.1,0.2,0.1,0.2,0,0.4c0,0.1-0.1,0.1-0.1,0.2c0,0.1-0.1,0.1-0.1,0.2c-0.1-0.1-0.1-0.3-0.2-0.4c-0.1-0.3-0.3-0.5-0.4-0.7
			c-0.1-0.1-0.1-0.2-0.1-0.3c-0.1-0.4-0.2-0.7-0.3-1.1c-0.1-0.4-0.2-0.9-0.2-1.3c0-0.4,0.1-0.7,0.4-0.9c0,0,0,0,0,0c0,0,0,0,0-0.1
			c-0.2,0.1-0.3,0.3-0.4,0.4c-0.2,0.4-0.2,0.8-0.2,1.2c0,0.4,0.2,0.8,0.3,1.2c0.1,0.2,0.1,0.4,0.2,0.6c0,0,0,0.1,0,0.1
			c0,0-0.1,0,0-0.1c-0.3-0.3-0.6-0.6-1-0.8c-0.3-0.1-0.7-0.2-1,0c-0.1,0.1-0.2,0.2-0.3,0.4c0,0.1,0,0.1,0,0.2c0,0.3,0.3,0.5,0.5,0.5
			c0.1,0,0.1,0,0.2-0.1c0,0-0.1,0-0.1,0c-0.2,0-0.3,0-0.4-0.1c-0.1-0.1-0.1-0.2,0-0.4c0.1-0.3,0.5-0.4,0.8-0.3
			c0.4,0.1,0.6,0.3,0.9,0.5c0.2,0.2,0.3,0.3,0.5,0.5c0.1,0.1,0.1,0.3,0.1,0.4c0,0.5,0,1-0.1,1.5c0,0,0,0.1,0,0.1
			c0,0.1,0,0.2-0.1,0.3c0,0.3-0.1,0.5-0.2,0.7c-0.3,0.7-0.7,1.4-1.3,2c-0.2,0.2-0.5,0.5-0.7,0.7c-0.1,0.1-0.3,0.1-0.4,0.2
			c0.1-0.1,0.3-0.3,0.4-0.4c0.4-0.5,0.8-1,1.2-1.5c0.2-0.3,0.4-0.7,0.5-1c0.2-0.5,0.3-1,0.2-1.6c-0.1-0.4-0.2-0.7-0.3-1.1
			c0,0,0,0-0.1,0c0,0,0,0,0,0.1c0.2,0.4,0.3,0.8,0.3,1.2c0,0.5-0.1,1-0.2,1.5c-0.2,0.7-0.7,1.3-1.1,1.9c-0.4,0.4-0.8,0.8-1.2,1.2
			c-0.1,0.1-0.2,0.1-0.3,0.1c0.1-0.1,0.2-0.3,0.4-0.4c0.4-0.4,0.7-0.7,1-1.1c0.2-0.3,0.4-0.7,0.6-1.1c0.2-0.5,0.3-0.9,0.2-1.4
			c0-0.4-0.2-0.8-0.5-1.2c0,0-0.1-0.1-0.1-0.1c0,0,0,0,0,0c0,0,0,0,0,0.1c0.4,0.5,0.5,1.1,0.5,1.8c0,0.1,0,0.2-0.1,0.4
			c0,0.1,0,0.1,0,0.2c0,0.3-0.2,0.6-0.3,0.8c-0.4,0.7-0.9,1.4-1.5,1.9c-0.1,0.1-0.2,0.2-0.4,0.3c-0.1,0.1-0.2,0.1-0.3,0.1
			c0-0.1,0.1-0.1,0.2-0.2c0.4-0.3,0.6-0.7,0.8-1.2c0.1-0.2,0.2-0.4,0.2-0.7c0.1-0.5,0.1-1,0-1.5c0-0.1,0-0.1,0-0.2
			c0-0.1,0-0.2,0.1-0.3c0-0.2,0.2-0.3,0.3-0.5c-0.2,0.1-0.3,0.3-0.4,0.6c0,0,0,0.1,0,0.1c-0.1,0.3,0,0.5,0,0.8
			c0,1.1-0.4,2.1-1.3,2.8c-0.3,0.2-0.3,0.3-0.6,0.3c0-0.1,0.1-0.1,0.2-0.2c0.4-0.3,0.7-0.7,0.9-1.1c0.1-0.2,0.1-0.4,0.2-0.6
			c0,0,0-0.1,0-0.1c0.1-0.5,0-1-0.1-1.5c-0.1-0.5-0.2-1.1-0.2-1.7c0-0.3,0-0.5,0.1-0.7c0.1-0.1,0.1-0.2,0.3-0.3c0,0,0.1,0,0.1-0.1
			c0-0.1-0.1,0-0.1,0c-0.2,0.1-0.3,0.3-0.4,0.5c0,0.1,0,0.1,0,0.2c-0.1,0.5,0,1,0.1,1.4c0.1,0.4,0.2,0.8,0.3,1.3
			c0.1,0.9-0.2,1.6-0.8,2.3c-0.2,0.2-0.4,0.4-0.7,0.5c-0.1,0.1-0.2,0.1-0.4,0.1c0,0-0.1,0-0.1,0c0,0,0,0,0.1,0
			c0.4-0.3,0.7-0.6,1-0.9c0.1-0.2,0.2-0.4,0.3-0.6c0.1-0.4,0.2-0.8,0-1.2c-0.1-0.1-0.2-0.2-0.3-0.3c-0.1,0-0.1,0-0.2,0
			c-0.3,0-0.6,0.2-0.8,0.5c0,0,0,0.1,0,0.1c0,0.2,0.2,0.4,0.3,0.4c-0.1-0.1-0.2-0.2-0.2-0.4c0-0.1,0-0.1,0-0.2
			c0.1-0.2,0.5-0.4,0.7-0.4c0.2,0,0.3,0.1,0.3,0.3c0.2,0.4,0.1,0.8-0.1,1.2c-0.2,0.5-0.6,0.8-1,1.1c-0.1,0-0.1,0.1-0.2,0.1
			c-0.4,0.3-0.8,0.4-1.3,0.5c-0.7,0.2-1.3,0.3-2,0.5C5.5,33.9,4.6,34.1,3.7,34.2z M13.5,31.5c-0.1,0.1-0.3,0.2-0.5,0.3
			c1.5-1.5,2.4-3.2,2.2-5.4c0.2,0.3,0.4,0.7,0.5,1c0,0,0,0.1,0,0.1c-0.1,0.2-0.1,0.4-0.2,0.6c-0.1,0.4-0.2,0.7-0.3,1.1
			C14.7,30.1,14.2,30.8,13.5,31.5z M14.1,31.3c-0.1,0.1-0.2,0.1-0.3,0.1c0.1-0.2,0.3-0.3,0.4-0.4c0.6-0.7,1.1-1.4,1.3-2.3
			c0.1-0.3,0.1-0.5,0.2-0.8c0,0,0-0.1,0-0.2c0,0,0,0.1,0,0.1c0,0.5,0,0.9-0.2,1.4C15.3,30,14.7,30.7,14.1,31.3z M13.6,31.9
			c0.1-0.1,0.2-0.1,0.3-0.1c0.8-0.1,1.6-0.1,2.4,0c0.1,0,0.2,0,0.3,0.1c0.4,0.2,0.6,0.9,0.4,1.3C16.1,32.3,14.9,32.1,13.6,31.9z
			 M14.5,31.2C14.5,31.1,14.5,31.1,14.5,31.2c0.4-0.4,0.7-0.8,0.9-1.3c0.4-0.8,0.6-1.5,0.4-2.4c0,0,0-0.1,0-0.1
			c0.1-0.2,0.2-0.4,0.4-0.6c0,0.1,0,0.1,0,0.2c0.2,0.6,0.2,1.3,0,1.9c-0.2,0.7-0.6,1.3-1.1,1.9C15,31,14.7,31.1,14.5,31.2z
			 M14.4,31.7c0.1-0.1,0.3-0.1,0.4-0.2c0.1,0,0.1-0.1,0.2-0.1c0.5,0,0.9,0.1,1.3,0.3C15.6,31.6,15,31.6,14.4,31.7z M15.4,30.8
			C15.4,30.8,15.3,30.8,15.4,30.8C15.4,30.8,15.4,30.7,15.4,30.8c0.4-0.6,0.8-1.1,1-1.7c0.3-0.8,0.3-1.5,0-2.3c0-0.1,0-0.1,0-0.1
			c0.1-0.1,0.3-0.2,0.4-0.3c0.1,0,0.1,0,0.1,0c0.1,0.1,0.3,0.2,0.4,0.4c0.1,0.1,0.1,0.1,0.1,0.2c0,0.5-0.1,0.9-0.3,1.3
			c-0.3,0.9-0.9,1.7-1.5,2.4C15.6,30.7,15.5,30.8,15.4,30.8z M17,26.2c0.1,0,0.1,0,0.2-0.1c0,0,0.1,0,0.1,0c0,0.1,0.1,0.2,0.1,0.3
			C17.2,26.3,17.1,26.3,17,26.2z M16.3,30.4c0,0-0.1,0.1-0.1,0c0.7-1,1.3-2,1.5-3.2c0,0,0-0.1,0-0.1c0,0,0,0,0,0c0,0,0,0,0,0
			c0.2,0.5,0.2,1-0.1,1.5C17.3,29.4,16.8,29.9,16.3,30.4z M19.6,21.5c0.1,0,0.1,0,0.2,0.1c0.5,0.2,0.8,0.6,1.1,1
			c0.4,0.7,0.6,1.4,0.6,2.1c0,0,0,0.1,0,0.1c0,0,0,0,0,0c-0.3-0.9-0.7-1.7-1.3-2.5C19.9,22.1,19.7,21.8,19.6,21.5z M18.3,29.9
			c0.1-0.1,0.3-0.1,0.4-0.2c0.1,0,0.1,0,0.2,0c0.6,0,1.2-0.1,1.9,0c0.7,0,1.4,0.1,2,0.3c0.1,0,0.2,0.1,0.3,0.1
			C22,30.5,19.6,30.4,18.3,29.9z M19.2,28.7c0.4-0.7,0.8-1.5,1-2.2C20.2,27.3,19.8,28.1,19.2,28.7z M19.3,29.4
			c0.3-0.2,0.5-0.3,0.9-0.3c0.9,0,1.9,0,2.8,0.3c0.3,0.1,0.5,0.2,0.8,0.4c-0.1,0.1-0.2,0.1-0.3,0.2c0,0-0.1,0-0.1,0
			c-0.7-0.3-1.5-0.5-2.3-0.5C20.4,29.4,19.9,29.4,19.3,29.4z M22.1,22.9c-0.2-0.9-0.1-1.7,0.2-2.6c0.6,1,0.9,2,0.9,3.1
			c0,1-0.5,2.7-0.9,3.1c0-0.1,0-0.1,0-0.2c0.2-0.8,0.2-1.6,0.1-2.4C22.3,23.6,22.1,23.2,22.1,22.9z M22.4,20.1c0,0-0.1-0.1,0-0.1
			c0.1-0.1,0.1-0.3,0.2-0.4c0-0.1,0.1-0.1,0.1,0c0.2,0.2,0.4,0.4,0.6,0.7c0,0,0,0.1,0,0.1c0,0.4,0,0.7,0,1.1c0,0.2,0,0.4,0.1,0.6
			c0.1,0.3,0.1,0.5,0.2,0.8c0.2,0.9,0,1.8-0.3,2.7c-0.1,0.2-0.1,0.4-0.3,0.5c-0.1,0.1-0.3,0.2-0.4,0.4c0,0,0-0.1,0-0.1
			c0.2-0.4,0.4-0.8,0.5-1.2c0.3-0.9,0.4-1.8,0.2-2.7c0-0.1,0-0.3-0.1-0.4C23.1,21.4,22.8,20.7,22.4,20.1z M21.1,27.5
			c-0.1,0.2-0.2,0.3-0.4,0.4c0.2-0.4,0.5-0.9,0.6-1.3C21.4,26.9,21.3,27.2,21.1,27.5z M23.7,18.7c0-0.1,0-0.1,0-0.2c0,0,0,0,0,0
			c0,0.2,0.1,0.4,0.2,0.6c0.1,0.2,0.1,0.4,0.1,0.6c-0.1,0.6,0,1.2,0.1,1.8c0.1,0.3,0.2,0.5,0.3,0.8c0,0,0,0.1,0,0.2
			c0,0.6,0,1.2,0,1.8c0,0.1,0,0.2,0,0.3c-0.1,0.2-0.3,0.3-0.4,0.5c0,0,0,0,0-0.1c0.2-0.7,0.3-1.3,0.3-2c0-0.5-0.1-0.9-0.2-1.4
			c-0.1-0.4-0.3-0.8-0.6-1.2c0,0,0-0.1,0-0.1C23.5,19.7,23.6,19.2,23.7,18.7z M23.5,20.8c0.1,0,0.1,0.1,0.1,0.1
			c0.1,0.3,0.2,0.5,0.3,0.8c0.1,0.7,0.2,1.4,0.1,2.1c0,0,0,0,0,0c0,0.1,0,0.1,0,0.1c0,0,0-0.1,0-0.1c0-0.1,0-0.1,0-0.2
			c0-0.5-0.1-1-0.2-1.5C23.6,21.7,23.5,21.2,23.5,20.8z M24.2,20.2C24.2,20.2,24.2,20.2,24.2,20.2C24.3,20.2,24.3,20.2,24.2,20.2
			C24.3,20.2,24.3,20.3,24.2,20.2c0.1,0.5,0.2,1,0.2,1.4C24.3,21.2,24.2,20.8,24.2,20.2C24.2,20.3,24.2,20.3,24.2,20.2z M22.9,26.9
			C22.9,26.9,23,26.9,22.9,26.9c1-0.3,2-0.5,2.9-0.5c0.7,0,1.5,0,2.2,0.2c0.3,0.1,0.5,0.2,0.8,0.4c-0.3,0-0.5,0.1-0.8,0.1
			c-0.2,0.1-0.3,0.1-0.5-0.1c0,0-0.1,0-0.1-0.1c-0.5-0.3-1.1-0.3-1.6-0.3c-0.9,0-1.7,0.1-2.6,0.4C23.2,27.1,23,27,22.9,26.9z
			 M23.9,24.1c0,0,0-0.1,0-0.1C23.9,24.1,23.9,24.1,23.9,24.1z M24.9,20.6c0-0.1,0-0.1,0-0.2c0-0.1,0-0.1,0-0.2c0-0.1,0-0.2,0.1-0.2
			c0,0,0-0.1,0.1-0.2c0,0.1,0,0.1,0,0.2c0,0.1,0,0.2-0.1,0.2c0,0.1,0,0.1,0,0.2C24.9,20.5,25,20.6,24.9,20.6z M24.9,20.9
			c0-0.1,0-0.2,0-0.3C24.9,20.7,24.9,20.8,24.9,20.9c0,0.7,0.3,1.3,0.7,1.8c0.1,0.1,0.1,0.2,0,0.3C25,22.4,24.8,21.7,24.9,20.9
			C24.9,20.9,24.9,20.9,24.9,20.9z M24.7,22C24.7,21.9,24.7,21.9,24.7,22C24.7,21.9,24.7,21.9,24.7,22c0,0,0.1,0.1,0.1,0.2
			c0.1,0.4,0.4,0.7,0.6,1c0,0,0.1,0.1,0,0.1c-0.1,0.1-0.1,0.2-0.2,0.3C24.9,23,24.6,22.6,24.7,22z M25.8,19.6
			c-0.2,0.3-0.3,0.7-0.3,1c-0.1,0.5,0.1,1,0.5,1.5c0.1,0.1,0.1,0.1,0,0.2c-0.3-0.3-0.4-0.6-0.5-1c-0.1-0.8,0.1-1.5,0.4-2.2
			C25.8,19.3,25.9,19.5,25.8,19.6z M24.7,24.3c0-0.5,0-0.9,0-1.3c0.1,0.2,0.3,0.4,0.4,0.6c0,0,0,0.1,0,0.1
			C25,23.9,24.8,24.1,24.7,24.3z M23.5,27.2c0.2,0,0.4-0.1,0.6-0.1c0.8-0.2,1.7-0.3,2.5-0.1c0.3,0,0.6,0.1,0.9,0.3
			c-0.6,0.3-1.3,0.4-2,0.4C24.8,27.6,24.2,27.5,23.5,27.2z M25.7,20.9c0-0.3,0-0.7,0.2-1c0.1-0.2,0.2-0.5,0.5-0.6
			c0.5-0.4,1-0.7,1.6-0.8c0.3-0.1,0.7-0.1,1,0.1c0.3,0.2,0.5,0.5,0.5,0.8c0,0.5-0.1,1-0.2,1.6c-0.1,0.3-0.2,0.7-0.4,1
			c-0.3,0.4-0.7,0.7-1.2,0.6c-0.3,0-0.6-0.1-0.8-0.2C26.1,22.1,25.7,21.6,25.7,20.9z M26.1,19c0-0.5,0.3-0.9,0.6-1.3
			C26.4,18.1,26.2,18.5,26.1,19z M26.4,17.6C26.4,17.6,26.5,17.5,26.4,17.6c0.1-0.4,0.3-0.6,0.4-0.9c0.4-0.7,0.7-1.5,0.8-2.3
			c0-0.2,0-0.4,0-0.6c0.1,0.2,0.1,0.3,0.2,0.5c0.1,0.6-0.1,1.1-0.3,1.7C27.2,16.5,26.8,17,26.4,17.6C26.5,17.6,26.5,17.6,26.4,17.6z
			 M26.3,19c0.1-0.6,1.7-3.1,2.4-3.8c0,0.1,0,0.1,0,0.2c0,0.3-0.1,0.4-0.3,0.6c-0.9,0.8-1.6,1.7-2,2.8C26.4,18.9,26.4,18.9,26.3,19z
			 M27,18.3c-0.1,0.1-0.2,0.2-0.3,0.3c0.2-0.6,1.2-1.9,1.9-2.6c0,0,0,0,0,0c0,0,0,0,0,0c0,0.1,0,0.1-0.1,0.2c0,0.1-0.1,0.2-0.2,0.3
			C27.9,17,27.4,17.6,27,18.3z M25.8,23.8c0.1-0.1,0.1-0.1,0.1-0.1c0.8-0.1,1.6-0.4,2.3-0.7c0.1-0.1,0.5-0.1,0.7,0
			C28,23.5,26.9,23.7,25.8,23.8z M27.4,18.2c0,0.1-0.1,0.1-0.1,0.1c0.3-0.5,0.6-0.9,1-1.3c0,0.1-0.1,0.1-0.1,0.2
			C27.8,17.5,27.6,17.8,27.4,18.2z M26.2,23.2c0-0.2,0.2-0.3,0.4-0.3c0.2,0,0.4-0.1,0.7-0.2c0.1,0,0.1,0,0.2,0
			c0.4,0,0.8-0.1,1.1-0.4c0.1,0,0.1-0.1,0.2-0.1c0.7-0.3,1.4-0.7,2-1.1c0.2-0.1,0.3-0.1,0.4,0.1c-0.4,0.1-0.7,0.3-1,0.5
			c-0.5,0.4-1.1,0.7-1.7,1c-0.1,0-0.2,0.1-0.3,0.1C27.4,22.9,26.8,23,26.2,23.2z M26.6,24.6C26.6,24.6,26.7,24.6,26.6,24.6
			c0.7-0.2,1.3-0.2,1.9-0.1C28,24.6,27.4,24.7,26.6,24.6C26.7,24.6,26.7,24.6,26.6,24.6z M28.5,17.9C28.4,17.8,28.5,17.8,28.5,17.9
			c0.5-1,1.2-1.8,2-2.6c0,0.1,0,0.2-0.1,0.3C29.6,16.3,29,17,28.5,17.9C28.5,17.9,28.5,17.9,28.5,17.9z M29,15.9
			c0-0.2,0-0.3,0.3-0.5C29.2,15.6,29.1,15.8,29,15.9z M29.1,18c-0.1-0.1-0.2-0.1-0.4-0.2c0.4-0.8,1-1.4,1.6-2c0,0,0,0,0,0
			c0,0,0,0,0,0c0,0,0,0.1,0,0.1c-0.1,0.3-0.2,0.6-0.4,0.8C29.7,17.2,29.5,17.6,29.1,18C29.2,18,29.1,18.1,29.1,18z M29.6,18.3
			c0-0.1,0.1-0.1,0.1-0.1C29.6,18.2,29.6,18.3,29.6,18.3z M29.7,19.9c0-0.1,0-0.2,0.1-0.3c0.2-0.1,0.4-0.2,0.6-0.3
			c0.7-0.5,1.2-1.1,1.7-1.7c0.3-0.5,0.7-0.9,1.1-1.3c0,0,0,0,0,0c0,0,0,0.1,0,0.1c0,0,0,0,0,0c-0.7,1.5-1.8,2.6-3.3,3.4
			C29.9,19.8,29.8,19.9,29.7,19.9z M29.3,21.4c0.1-0.2,0.3-0.3,0.5-0.3C29.6,21.2,29.5,21.3,29.3,21.4z M29.3,22.9
			c-0.1,0-0.3-0.1-0.4-0.1c0.5-0.3,1-0.6,1.5-0.9c0.3-0.2,0.7-0.4,1-0.5c0.1,0,0.1,0.1,0.2,0.1c0,0.1,0,0.1-0.1,0.1
			c-0.6,0.5-1.3,0.9-2.1,1.3C29.3,22.9,29.3,22.9,29.3,22.9z M31,20.7c-0.1,0.1-0.2,0.1-0.3,0.1c0.5-0.6,2.1-1.8,2.4-1.8
			C32.4,19.6,31.7,20.2,31,20.7z M31.7,21.4c0,0-0.1-0.1-0.1-0.1c0.1,0,0.2-0.1,0.3-0.1C31.8,21.3,31.7,21.3,31.7,21.4z"/>
		<path class="st5" d="M9.7,30.3c0,0,0,0.1,0,0.1C9.7,30.4,9.7,30.3,9.7,30.3z"/>
		<path class="st5" d="M9.8,30.3c0,0-0.1,0.1,0,0.2C9.8,30.4,9.8,30.3,9.8,30.3z"/>
		<path class="st5" d="M9.7,32.8C9.7,32.8,9.6,32.8,9.7,32.8C9.7,32.8,9.7,32.8,9.7,32.8C9.7,32.8,9.7,32.8,9.7,32.8z"/>
		<path class="st5" d="M10.5,29.8c0.1,0,0.1,0,0.2,0C10.6,29.8,10.6,29.8,10.5,29.8z"/>
		<path class="st5" d="M11.2,26.9c0,0.1,0,0.1,0,0.2C11.2,27,11.2,27,11.2,26.9z"/>
		<path class="st5" d="M12.6,25.3c0,0.1,0,0.1,0,0.2C12.6,25.4,12.6,25.4,12.6,25.3z"/>
		<path class="st5" d="M11.1,32.7C11.1,32.7,11.1,32.8,11.1,32.7C11.1,32.8,11.1,32.8,11.1,32.7C11.2,32.8,11.1,32.8,11.1,32.7z"/>
		<path class="st5" d="M11.6,30.6c0,0,0,0.1,0,0.1C11.6,30.7,11.6,30.7,11.6,30.6z"/>
		<path class="st5" d="M12.2,28.6c0,0,0,0.1,0,0.1C12.2,28.7,12.2,28.6,12.2,28.6z"/>
		<path class="st5" d="M12.3,28.5c0,0.1-0.1,0.2-0.1,0.3C12.3,28.6,12.3,28.5,12.3,28.5z"/>
		<path class="st5" d="M12.3,28.5c0,0.1-0.1,0.2-0.1,0.3C12.3,28.6,12.3,28.5,12.3,28.5z"/>
		<path class="st5" d="M13.5,29c0,0.1,0,0.1,0,0.2C13.5,29.1,13.5,29.1,13.5,29z"/>
		<path class="st5" d="M13.5,29c0,0.1,0,0.1,0,0.2C13.5,29.1,13.6,29.1,13.5,29z"/>
		<path class="st5" d="M15,25.7C15,25.7,15,25.7,15,25.7C15,25.8,15,25.7,15,25.7z"/>
		<path class="st5" d="M15,25.7C15,25.7,15,25.8,15,25.7c0,0.1,0,0.1,0,0.1C15,25.8,15,25.7,15,25.7z"/>
		<path class="st5" d="M15.4,26c0.1,0,0.1,0,0.2,0C15.5,26,15.5,26,15.4,26z"/>
		<path class="st5" d="M15.6,26.1c-0.1,0-0.1-0.1-0.2,0C15.5,26,15.5,26,15.6,26.1z"/>
		<path class="st5" d="M15,28.1c0,0.1-0.1,0.2-0.1,0.3C14.9,28.3,15,28.2,15,28.1z"/>
		<path class="st5" d="M15,28.1c0,0.1,0,0.2-0.1,0.3C15,28.3,15,28.2,15,28.1z"/>
		<path class="st5" d="M15.3,31.3C15.3,31.3,15.3,31.3,15.3,31.3c0.1,0,0.1,0,0.1,0C15.3,31.3,15.3,31.3,15.3,31.3
			C15.3,31.3,15.3,31.3,15.3,31.3z"/>
		<path class="st5" d="M15.3,31.3C15.3,31.3,15.3,31.3,15.3,31.3C15.4,31.3,15.3,31.3,15.3,31.3z"/>
		<path class="st5" d="M19.1,19.9c0,0.1,0,0.1,0,0.2C19,20.1,19,20,19.1,19.9z"/>
		<path class="st5" d="M17.6,27.2C17.6,27.2,17.6,27.2,17.6,27.2C17.6,27.2,17.6,27.2,17.6,27.2C17.6,27.2,17.6,27.1,17.6,27.2z"/>
		<path class="st5" d="M17,30C17,30,17,30,17,30C17,30.1,17,30,17,30C17,30,17,30,17,30z"/>
		<path class="st5" d="M17.9,28.5c0,0,0,0.1,0,0.1C17.9,28.6,17.9,28.5,17.9,28.5z"/>
		<path class="st5" d="M18.3,28.9c0,0,0,0.1-0.1,0.1C18.3,29,18.3,28.9,18.3,28.9C18.2,28.9,18.2,28.9,18.3,28.9z"/>
		<path class="st5" d="M18.3,28.9C18.2,28.9,18.2,28.9,18.3,28.9C18.3,28.9,18.3,28.9,18.3,28.9z"/>
		<path class="st5" d="M18.6,28c0,0,0,0.1,0,0.1C18.6,28,18.6,28,18.6,28z"/>
		<path class="st5" d="M21.3,19.3c0.1,0,0.1,0,0.2,0C21.5,19.3,21.4,19.3,21.3,19.3z"/>
		<path class="st5" d="M20.1,26.1c0,0,0,0.1-0.1,0.1C20.1,26.2,20.1,26.2,20.1,26.1z"/>
		<path class="st5" d="M23.9,16.9c0,0.1,0,0.2-0.1,0.2C23.8,17.1,23.8,17,23.9,16.9z"/>
		<path class="st5" d="M21.6,26.7c0,0,0,0.1,0,0.1C21.5,26.8,21.6,26.8,21.6,26.7z"/>
		<path class="st5" d="M22.1,25.9c0,0.1,0,0.1,0,0.2C22.1,26,22.1,26,22.1,25.9z"/>
		<path class="st5" d="M22,26.3c0,0.1,0,0.1-0.1,0.2C22,26.4,22,26.3,22,26.3z"/>
		<path class="st5" d="M22.4,27.5C22.3,27.5,22.3,27.6,22.4,27.5c0,0,0,0.1,0.1,0.1C22.4,27.6,22.4,27.6,22.4,27.5
			C22.3,27.6,22.3,27.6,22.4,27.5z"/>
		<path class="st5" d="M22.5,27.6C22.5,27.6,22.5,27.6,22.5,27.6C22.5,27.6,22.5,27.6,22.5,27.6z"/>
		<path class="st5" d="M24.7,20.2c0,0.1-0.1,0.1,0,0.2C24.7,20.3,24.7,20.3,24.7,20.2C24.7,20.2,24.7,20.2,24.7,20.2z"/>
		<path class="st5" d="M24.8,19.8c0,0.1,0,0.1-0.1,0.2C24.8,19.9,24.8,19.9,24.8,19.8z"/>
		<path class="st5" d="M24.7,20.2c0,0.1,0,0.1,0,0.2C24.7,20.3,24.7,20.3,24.7,20.2z"/>
		<path class="st5" d="M23.9,23.8C23.9,23.8,23.9,23.8,23.9,23.8C23.9,23.8,23.9,23.8,23.9,23.8z"/>
		<path class="st5" d="M23.9,24c0,0,0,0.1,0,0.1C23.9,24.1,23.9,24.1,23.9,24z"/>
		<path class="st5" d="M24.7,21.9C24.7,21.9,24.7,21.9,24.7,21.9C24.7,21.9,24.7,21.9,24.7,21.9C24.7,21.9,24.7,21.9,24.7,21.9z"/>
		<path class="st5" d="M25.3,19.7c0,0,0,0.1,0,0.1C25.3,19.8,25.3,19.8,25.3,19.7z"/>
		<path class="st5" d="M25.2,20.3c0,0,0,0.1,0,0.1C25.2,20.4,25.2,20.3,25.2,20.3z"/>
		<path class="st5" d="M26.3,15.8c0,0,0,0.1,0,0.1C26.2,15.9,26.3,15.9,26.3,15.8z"/>
		<path class="st5" d="M26.1,16.6c0,0,0,0.1-0.1,0.1C26.1,16.7,26.1,16.6,26.1,16.6z"/>
		<path class="st5" d="M25.7,18.3c0,0,0,0.1,0,0.2c0,0,0,0,0,0C25.6,18.4,25.6,18.4,25.7,18.3z"/>
		<path class="st5" d="M25.5,19.3c0,0.1,0,0.1-0.1,0.2C25.4,19.4,25.4,19.3,25.5,19.3z"/>
		<path class="st5" d="M25.6,18.7c0,0.1,0,0.1,0,0.2C25.6,18.8,25.6,18.8,25.6,18.7z"/>
		<path class="st5" d="M25.5,19.3c0,0.1,0,0.1-0.1,0.2C25.5,19.4,25.5,19.3,25.5,19.3z"/>
		<path class="st5" d="M26.4,16.2c0,0.2-0.1,0.4-0.1,0.6C26.3,16.6,26.4,16.4,26.4,16.2z"/>
		<path class="st5" d="M26.1,18.2c0,0,0,0.1-0.1,0.1C26.1,18.3,26,18.2,26.1,18.2z"/>
		<path class="st5" d="M26.5,17.5C26.5,17.5,26.4,17.6,26.5,17.5C26.5,17.6,26.5,17.6,26.5,17.5C26.5,17.5,26.5,17.5,26.5,17.5z"/>
		<path class="st3" d="M26.7,19.5c-0.6,0.3-0.9,0.9-0.7,1.5c0.1,0.2,0.1,0.3,0.3,0.4c0.3,0.3,0.6,0.5,1,0.6c0.6,0.2,1.1-0.2,1.3-0.8
			c0.1-0.4,0.1-0.9-0.2-1.3C28.1,19.4,27.2,19.3,26.7,19.5z M26.5,20.6c0-0.4,0.5-0.9,1.1-0.7c0.2,0.1,0.4,0.3,0.6,0.5
			c0.2,0.3,0.1,0.8-0.2,1c-0.1,0.1-0.3,0.2-0.4,0.1c-0.3-0.1-0.4-0.3-0.4-0.6c-0.2,0.1-0.3,0.1-0.5,0C26.6,20.9,26.5,20.7,26.5,20.6
			z"/>
		<path class="st5" d="M28.4,13.4c-0.1-0.1-0.2-0.1-0.4-0.1C28.1,13.3,28.2,13.3,28.4,13.4z"/>
		<path class="st5" d="M28.4,13.4c-0.1-0.1-0.2-0.1-0.4-0.1C28.1,13.4,28.2,13.4,28.4,13.4z"/>
		<path class="st4" d="M27.6,19.9c-0.6-0.2-1,0.3-1.1,0.7c0,0.2,0,0.3,0.2,0.4c0.1,0.1,0.3,0.1,0.5,0c0,0.3,0.1,0.5,0.4,0.6
			c0.2,0.1,0.3,0,0.4-0.1c0.3-0.2,0.3-0.7,0.2-1C28,20.2,27.8,20,27.6,19.9z"/>
		<path class="st5" d="M27.6,16.2c0,0,0,0.1-0.1,0.1C27.6,16.3,27.6,16.3,27.6,16.2C27.6,16.3,27.6,16.3,27.6,16.2
			C27.6,16.3,27.6,16.3,27.6,16.2z"/>
		<path class="st5" d="M28,15.1c0,0,0,0.1,0,0.1C28,15.2,28,15.1,28,15.1z"/>
		<path class="st5" d="M26.7,24.6C26.7,24.6,26.6,24.6,26.7,24.6C26.7,24.6,26.7,24.6,26.7,24.6C26.7,24.6,26.7,24.6,26.7,24.6z"/>
		<path class="st5" d="M26.7,24.6C26.7,24.6,26.7,24.6,26.7,24.6C26.7,24.6,26.7,24.6,26.7,24.6z"/>
		<path class="st5" d="M29.5,14.7c0,0,0,0.1,0,0.1C29.5,14.8,29.6,14.8,29.5,14.7z"/>
		<path class="st5" d="M29.5,14.9c0,0,0,0.1,0,0.1C29.5,15,29.5,15,29.5,14.9z"/>
		<path class="st5" d="M29.7,18.2c-0.1,0-0.1,0.1-0.1,0.1C29.6,18.3,29.6,18.2,29.7,18.2z"/>
		<path class="st5" d="M30.3,15.9C30.3,15.9,30.3,15.9,30.3,15.9C30.3,15.9,30.4,15.9,30.3,15.9z"/>
		<path class="st5" d="M30.3,15.8C30.3,15.8,30.3,15.8,30.3,15.8c0,0.1,0,0.1,0,0.1C30.3,15.9,30.3,15.9,30.3,15.8
			C30.4,15.8,30.4,15.8,30.3,15.8z"/>
		<path class="st5" d="M30.1,17.7L30.1,17.7C30.2,17.7,30.2,17.7,30.1,17.7C30.2,17.7,30.2,17.7,30.1,17.7c0.1,0.1,0.1,0.1,0,0.1
			l0.1,0.1c0.2-0.2,0.3-0.3,0.4-0.5c0.4-0.5,0.7-1,1-1.5c0.2-0.4,0.4-0.7,0.6-1.1c0.1-0.2,0.1-0.3,0.2-0.5c0,0,0-0.1,0-0.1
			c-0.1,0.1-0.1,0.2-0.2,0.3c-0.1,0.2-0.2,0.4-0.3,0.7c0,0.1-0.1,0.1-0.2,0.2c-0.1,0.1-0.2,0.1-0.3,0.2l0.1,0.1c0,0,0,0,0.1-0.1
			c0,0,0.1-0.1,0.1-0.1C31.3,16.3,30.7,17,30.1,17.7z"/>
		<path class="st5" d="M30.6,15.9c0,0,0,0.1-0.1,0.1C30.6,16,30.6,16,30.6,15.9z"/>
		<path class="st5" d="M30.2,17.7c0,0,0,0.1-0.1,0.1C30.1,17.8,30.2,17.8,30.2,17.7C30.2,17.8,30.2,17.7,30.2,17.7
			C30.2,17.7,30.2,17.7,30.2,17.7C30.2,17.7,30.2,17.7,30.2,17.7z"/>
		<path class="st5" d="M31.1,15.9l0.1,0.1c0.1-0.1,0.2-0.2,0.3-0.3l-0.1-0.1C31.3,15.7,31.2,15.8,31.1,15.9z"/>
		<path class="st5" d="M33.2,16.3C33.2,16.3,33.3,16.3,33.2,16.3C33.3,16.3,33.3,16.3,33.2,16.3C33.3,16.3,33.2,16.3,33.2,16.3z"/>
		<path class="st5" d="M33.8,15c0,0,0,0.1-0.1,0.1C33.7,15.1,33.7,15,33.8,15z"/>
		<path class="st5" d="M33.7,15.4c0,0,0,0.1,0,0.1C33.7,15.5,33.7,15.4,33.7,15.4z"/>
		<path class="st5" d="M33.7,15.4c0,0,0,0.1,0,0.1C33.7,15.5,33.7,15.5,33.7,15.4z"/>
	</g>
</g>
<text transform="matrix(1 0 0 1 4.3234 8.3485)"><tspan x="0" y="0" class="st7 st8">Moar </tspan><tspan x="4.6" y="10" class="st7 st8">Art</tspan></text>
</svg>
